<?xml version="1.0" encoding="UTF-8"?>
<svg id="LOGO-5gradi-noBG" xmlns="http://www.w3.org/2000/svg" viewBox="0 0 1000 1000">
  <defs>
    <style>
      .cls-1 {
        fill: #fff;
      }

      .cls-2 {
        fill: #e39ec6;
      }
    </style>
  </defs>
  <g id="LOGO-OK">
    <g>
      <path class="cls-1" d="m204.46,455.11c3.53-.31,5.79,1.7,6.08,5.1l3.28,37.45c.33,3.77-1.33,5.75-5.1,6.08l-120.63,10.55c-3.4.3-5.77-1.58-6.08-5.1l-15.18-173.53c-.33-3.77,1.33-5.75,5.1-6.08l44.63-3.9c3.77-.33,5.75,1.33,6.08,5.1l11.42,130.48,70.41-6.16Z"/>
      <path class="cls-1" d="m370.34,436.44c6.69-.59,11.17,3.07,11.72,9.27l3.05,34.9c.41,4.74-2.37,7.93-7.11,8.34l-133.64,11.69c-4.86.43-8.16-2.23-8.57-6.97l-14.8-169.15c-.44-4.99,2.23-8.16,7.21-8.6l131.21-11.48c4.99-.44,8.17,2.35,8.6,7.21l3.23,36.97c.44,4.99-2.22,8.28-7.2,8.72l-83.3,7.29,1.88,21.52,59.83-5.23c5.72-.5,9.26,2.25,9.73,7.6l2.17,24.81c.44,4.99-2.81,8.46-8.29,8.93l-59.83,5.23,1.42,16.17,82.69-7.23Z"/>
      <path class="cls-1" d="m560.54,286.84c5.47-.48,7.87,3.11,6.22,8.03l-60.07,179.01c-1.45,4.42-4.84,7.65-9.22,8.04l-13.13,1.15c-4.26.37-8.5-1.95-10.84-6.28l-90.6-165.83c-2.5-4.8-.5-8.53,4.85-9l44.26-3.87c4.74-.41,8.54,2.32,10.35,6.2l40.25,87.52,24.56-93.19c1.09-4.38,4.61-7.51,8.99-7.89l44.39-3.88Z"/>
      <path class="cls-1" d="m732.48,404.75c6.69-.59,11.17,3.07,11.72,9.27l3.05,34.9c.41,4.74-2.37,7.93-7.11,8.34l-133.64,11.69c-4.86.43-8.16-2.23-8.57-6.97l-14.8-169.15c-.44-4.99,2.23-8.16,7.21-8.6l131.21-11.48c4.99-.44,8.17,2.35,8.6,7.21l3.23,36.97c.44,4.99-2.22,8.28-7.2,8.72l-83.3,7.29,1.88,21.52,59.83-5.23c5.72-.5,9.26,2.25,9.73,7.6l2.17,24.81c.44,4.99-2.81,8.46-8.29,8.93l-59.83,5.23,1.42,16.17,82.69-7.23Z"/>
      <path class="cls-1" d="m897.62,394.47c3.53-.31,5.79,1.7,6.08,5.1l3.28,37.45c.33,3.77-1.33,5.75-5.1,6.08l-120.63,10.55c-3.4.3-5.77-1.58-6.08-5.1l-15.18-173.53c-.33-3.77,1.33-5.75,5.1-6.08l44.63-3.9c3.77-.33,5.75,1.33,6.08,5.1l11.42,130.48,70.41-6.16Z"/>
    </g>
    <rect class="cls-2" x="493.93" y="503.46" width="14" height="185" rx="5" ry="5" transform="translate(-50.04 45.93) rotate(-5)"/>
    <g>
      <path class="cls-1" d="m662.23,595.89c1.49,17.02,10.95,26.74,25.65,25.45,14.25-1.25,22.32-12.61,20.85-29.52l-8.78-100.32c-.31-3.53,1.76-6.16,5.06-6.45l40.57-3.55c3.65-.32,6.25,1.9,6.56,5.43l8.72,99.72c2.2,25.17-2.88,45.84-15.14,61.86-12.25,16.14-29.95,25.17-53.09,27.19-23.36,2.04-42.36-3.77-57.11-17.43-14.85-13.53-23.33-33-25.54-58.3l-8.73-99.84c-.31-3.53,1.3-6.12,4.38-6.39l42.05-3.68c3.19-.28,5.46,1.97,5.76,5.5l8.78,100.32Z"/>
      <path class="cls-1" d="m853.9,472.03c15.93-1.39,30.68.5,44.01,5.83,13.33,5.33,23.97,13.47,32.14,24.27,8.19,10.92,12.84,23.51,14.1,37.86,4.46,42.62-29.41,78.42-77.14,81.86l-17.15,1.5,2.38,27.24c.41,4.74-2.37,7.93-7.6,8.38l-39.77,3.48c-4.86.43-8.04-2.24-8.45-6.98l-14.8-169.15c-.41-4.74,2.59-8.19,7.09-8.59l21.4-1.87,18.61-1.63,25.17-2.2Zm4.96,101.52c9.24-.81,16.69-3.91,22.21-9.42,5.53-5.39,8.03-11.85,7.36-19.51s-4.25-13.6-10.65-18.06c-6.39-4.46-14.27-6.23-23.51-5.42l-13.26,1.16,4.59,52.41,13.26-1.16Z"/>
    </g>
    <g>
      <path class="cls-2" d="m104.93,748.18l9.64-.84c4.89-.43,9.32,3.25,9.73,7.96s-3.31,9.1-8.2,9.53l-6.05.53.94,10.76-3.59.31-2.47-28.24Zm10.89,13.5c2.91-.25,5.16-2.94,4.89-6.07s-2.96-5.39-5.87-5.13l-6.05.53.98,11.21,6.05-.53Z"/>
      <path class="cls-2" d="m202.2,739.67l3.14-.27,13.23,27.3-3.81.33-3.3-6.71-11.66,1.02-2.08,7.18-3.81.33,8.29-29.18Zm7.86,17.61l-5.79-11.92-3.63,12.74,9.41-.82Z"/>
      <path class="cls-2" d="m285.81,732.36l10.53-.92c4.71-.41,8.85,3.07,9.24,7.55.29,3.27-1.11,5.38-2.57,6.73-.88.8-1.86,1.43-2.95,1.88l7.94,11.27-4.03.35-7.74-11.07-5.38.47,1.02,11.65-3.59.31-2.47-28.24Zm11.71,12.53c2.64-.23,4.73-2.72,4.48-5.59-.25-2.87-2.74-4.95-5.38-4.72l-6.95.61.9,10.31,6.95-.61Z"/>
      <path class="cls-2" d="m382.69,727.05l-8.52.75-.27-3.14,20.62-1.8.27,3.14-8.52.75,2.2,25.1-3.59.31-2.2-25.1Z"/>
      <path class="cls-2" d="m472.46,733.42l-10.7-16.45,3.81-.33,8.35,12.82,6-14.08,3.81-.33-7.68,18.06.96,10.98-3.59.31-.96-10.98Z"/>
      <path class="cls-2" d="m629.64,702.28l10.53-.92c4.66-.41,8.36,2.61,8.74,6.91.18,2.02-.51,3.48-1.19,4.44-.45.58-.9,1.07-1.46,1.44.8.34,1.56.77,2.24,1.34,1.17.98,2.4,2.68,2.63,5.24.36,4.17-3.1,8.4-8.26,8.85l-10.76.94-2.47-28.24Zm11.57,10.96c2.69-.24,4.53-2.43,4.33-4.67-.22-2.47-2.41-4.31-5.1-4.07l-6.95.61.76,8.74,6.95-.61Zm1.38,13.2c3.18-.28,5.18-2.71,4.93-5.63-.23-2.65-2.72-4.73-5.81-4.46l-7.17.63.88,10.09,7.17-.63Z"/>
      <path class="cls-2" d="m728.04,693.67l3.14-.27,13.23,27.3-3.81.33-3.3-6.71-11.66,1.02-2.08,7.18-3.81.33,8.29-29.18Zm7.86,17.61l-5.79-11.92-3.63,12.74,9.41-.82Z"/>
      <path class="cls-2" d="m811.65,686.35l3.14-.27,15.98,20.06-1.86-21.29,3.59-.31,2.47,28.24-3.14.27-15.98-20.06,1.86,21.29-3.59.31-2.47-28.24Z"/>
      <path class="cls-2" d="m905.79,678.12l7.85-.69c7.4-.65,13.98,4.88,14.68,12.94.71,8.07-4.82,14.65-12.21,15.3l-7.85.69-2.47-28.24Zm10.04,24.42c5.2-.45,9.45-5.57,8.9-11.85-.55-6.28-5.62-10.57-10.82-10.12l-4.26.37,1.92,21.96,4.26-.37Z"/>
    </g>
    <path class="cls-2" d="m248.94,597.9l-129.64-55.26c-7.51-3.2-15.94-2.25-22.55,2.54-6.61,4.79-10.13,12.51-9.42,20.65l8.38,95.82h0s0,0,0,0c.24,2.75,2.67,4.79,5.42,4.55l3.98-.35c2.75-.24,4.79-2.67,4.55-5.42,0,0,0,0,0,0l-8.38-95.82c-.28-3.24,1.06-6.19,3.69-8.09,2.63-1.91,5.85-2.27,8.84-1l129.64,55.26c3.12,1.33,5.16,4.14,5.45,7.52s-1.22,6.5-4.07,8.35l-118.07,76.93c-2.72,1.77-5.96,1.97-8.88.55-2.92-1.42-4.76-4.09-5.04-7.33l-.57-6.48s0,0,0,0c-.24-2.75-2.67-4.79-5.42-4.55l-3.98.35c-2.75.24-4.79,2.67-4.55,5.42h0s.57,6.48.57,6.48c.71,8.13,5.52,15.12,12.86,18.7,3.85,1.87,8.01,2.62,12.08,2.26,3.69-.32,7.32-1.55,10.57-3.67l118.07-76.93c7.14-4.65,11.11-12.81,10.37-21.3-.74-8.49-6.07-15.84-13.91-19.18Z"/>
    <path class="cls-2" d="m454.51,579.92l-129.64-55.26c-7.51-3.2-15.94-2.25-22.55,2.54-6.61,4.79-10.13,12.51-9.42,20.65l8.38,95.82h0s0,0,0,0c.24,2.75,2.67,4.79,5.42,4.55l3.98-.35c2.75-.24,4.79-2.67,4.55-5.42,0,0,0,0,0,0l-8.38-95.82c-.28-3.24,1.06-6.19,3.69-8.09,2.63-1.91,5.85-2.27,8.84-1l129.64,55.26c3.12,1.33,5.16,4.14,5.45,7.52.3,3.38-1.22,6.5-4.07,8.35l-118.07,76.93c-2.72,1.77-5.96,1.97-8.88.55-2.92-1.42-4.76-4.09-5.04-7.33l-.57-6.48s0,0,0,0c-.24-2.75-2.67-4.79-5.42-4.55l-3.98.35c-2.75.24-4.79,2.67-4.55,5.42h0s.57,6.48.57,6.48c.71,8.13,5.52,15.12,12.86,18.7,3.85,1.87,8.01,2.62,12.08,2.26,3.69-.32,7.32-1.55,10.57-3.67l118.07-76.93c7.14-4.65,11.11-12.81,10.37-21.3-.74-8.49-6.07-15.84-13.91-19.18Z"/>
  </g>
</svg>